<svg xmlns="http://www.w3.org/2000/svg" width="400" height="400" viewBox="0 0 100 100" fill="none">
  <g fill="#2563EB">
    <path d="M29.5 50C29.5 55.2467 25.2467 59.5 20 59.5C14.7533 59.5 10.5 55.2467 10.5 50C10.5 44.7533 14.7533 40.5 20 40.5C25.2467 40.5 29.5 44.7533 29.5 50Z"/>
    <path d="M53.5 35C53.5 40.2467 49.2467 44.5 44 44.5C38.7533 44.5 34.5 40.2467 34.5 35C34.5 29.7533 38.7533 25.5 44 25.5C49.2467 25.5 53.5 29.7533 53.5 35Z"/>
    <path d="M53.5 65C53.5 70.2467 49.2467 74.5 44 74.5C38.7533 74.5 34.5 70.2467 34.5 65C34.5 59.7533 38.7533 55.5 44 55.5C49.2467 55.5 53.5 59.7533 53.5 65Z"/>
    <path d="M26.9038 46.5L40.1923 37.5" stroke="#2563EB" stroke-width="8" stroke-linecap="round"/>
    <path d="M26.9038 53.5L40.1923 62.5" stroke="#2563EB" stroke-width="8" stroke-linecap="round"/>
    
    <path d="M77 28L92 38L77 48L62 38L77 28Z"/>
    <path d="M68 47L77 52L86 47V56L77 61L68 56V47Z"/>
    <path d="M92 38C92 38 95 44 92 52" stroke="#2563EB" stroke-width="2" stroke-linecap="round"/>
    <circle cx="92" cy="54" r="2.5"/>
  </g>
</svg>